<?xml version="1.0" standalone="no"?>
<!DOCTYPE svg PUBLIC "-//W3C//DTD SVG 20010904//EN"
 "http://www.w3.org/TR/2001/REC-SVG-20010904/DTD/svg10.dtd">
<svg version="1.0" xmlns="http://www.w3.org/2000/svg"
 width="512.000000pt" height="512.000000pt" viewBox="0 0 512.000000 512.000000"
 preserveAspectRatio="xMidYMid meet">

<g transform="translate(0.000000,512.000000) scale(0.100000,-0.100000)"
fill="#000000" stroke="none">
<path d="M1135 4123 c36 -53 33 -63 -19 -63 -36 0 -46 4 -51 20 -9 27 -23 25
-31 -5 -5 -22 -12 -25 -50 -25 -49 0 -48 -1 -34 52 l11 37 72 4 72 4 -75 -1
c-74 -1 -75 -1 -85 -31 -5 -16 -15 -34 -22 -40 -15 -13 -36 -92 -28 -105 3 -6
-3 -10 -14 -10 -16 0 -21 6 -21 25 0 25 0 25 -87 23 l-88 -2 82 -3 81 -4 11
-62 c6 -34 14 -83 17 -109 l7 -48 -42 0 c-22 0 -41 -3 -41 -7 0 -5 23 -88 51
-186 28 -98 49 -180 46 -183 -2 -3 -21 -7 -41 -11 -25 -4 -37 -2 -40 8 -3 8
-30 94 -61 192 l-56 177 -27 -6 c-15 -4 -28 -8 -29 -9 -2 -1 1 -42 6 -91 5
-53 9 -73 11 -49 2 34 10 16 58 -129 32 -93 60 -168 65 -167 4 0 27 1 52 1
l46 0 -7 35 c-5 30 -4 35 14 35 12 0 22 -9 25 -21 5 -19 11 -20 69 -15 35 3
102 8 150 12 l87 6 3 31 c5 49 26 44 34 -8 l6 -46 52 3 c49 3 51 4 54 34 2 22
9 34 24 37 17 5 19 11 13 45 -5 30 -2 47 13 71 l19 31 6 -95 c4 -53 9 -100 12
-106 9 -14 93 -11 102 4 4 6 6 22 5 33 -2 15 4 23 17 27 19 5 21 12 19 69 l-2
63 -3 -62 -4 -63 -43 0 c-52 0 -56 6 -57 98 -1 37 -4 94 -8 127 l-6 60 -13
-62 c-7 -35 -16 -63 -21 -63 -4 0 -20 27 -36 60 -16 33 -30 59 -31 57 -3 -3
12 -172 22 -245 l5 -43 -48 3 -48 3 -28 288 c-16 158 -26 294 -23 302 3 10 19
15 46 15 l41 0 31 -70 c28 -63 48 -88 48 -59 0 6 9 42 21 80 l21 69 43 0 44 0
4 -42 4 -43 1 48 2 47 -54 0 c-52 0 -55 -1 -61 -30 -4 -16 -11 -33 -16 -36 -6
-3 -15 -18 -21 -32 -10 -27 -11 -27 -35 26 l-25 53 -51 -3 c-51 -3 -52 -4 -55
-35 -4 -41 -29 -44 -34 -5 -3 24 -8 28 -48 33 -25 3 -33 7 -19 7 14 1 28 5 32
8 8 9 -41 104 -54 104 -5 0 2 -17 16 -37z m65 -112 c0 -10 3 -32 6 -48 l6 -30
-79 -8 c-129 -11 -124 -8 -121 -74 3 -53 4 -56 31 -57 25 -1 25 -1 2 3 -16 3
-25 11 -25 22 0 20 41 31 118 31 41 0 42 1 42 35 0 39 17 48 24 13 5 -22 26
-240 29 -303 2 -30 1 -30 -58 -36 l-60 -6 68 -1 67 -2 0 -50 c0 -58 7 -55
-177 -65 l-111 -7 -6 54 c-11 95 -46 482 -46 510 0 27 1 27 73 31 200 9 217 8
217 -12z m-313 -357 c20 -190 16 -203 -22 -75 -27 93 -31 116 -20 127 7 7 10
25 7 40 -4 20 -1 25 9 22 10 -3 17 -37 26 -114z"/>
<path d="M1132 3783 c9 -2 19 -16 21 -31 4 -24 4 -24 6 6 1 27 -2 32 -21 31
-16 -1 -18 -3 -6 -6z"/>
<path d="M1156 3705 c-3 -8 -18 -15 -33 -15 -15 0 -45 -3 -65 -6 -37 -6 -38
-8 -38 -50 0 -39 2 -43 18 -35 9 6 34 13 55 16 33 5 37 9 37 35 0 20 6 31 20
35 11 3 20 13 20 21 0 18 -6 18 -14 -1z"/>
<path d="M1031 3563 c-1 -21 3 -23 42 -21 l42 1 -37 4 c-24 3 -38 10 -41 21
-3 12 -5 11 -6 -5z"/>
<path d="M2082 4093 c22 -3 28 -10 31 -36 4 -31 4 -31 5 6 2 36 1 37 -30 36
-30 -2 -30 -2 -6 -6z"/>
<path d="M1943 4083 c20 -2 54 -2 75 0 20 2 3 4 -38 4 -41 0 -58 -2 -37 -4z"/>
<path d="M1668 4073 c-47 -4 -48 -5 -48 -39 0 -27 -4 -34 -20 -34 -19 0 -20
-5 -15 -62 6 -68 35 -525 35 -552 0 -14 10 -16 63 -14 l62 3 -3 33 c-3 27 0
32 17 32 12 0 22 6 22 13 1 6 4 -4 8 -23 7 -40 -13 -38 214 -25 l127 7 0 34
c0 27 4 34 20 34 15 0 20 6 19 28 -1 22 -3 23 -6 5 -4 -23 -10 -24 -230 -39
-75 -5 -93 -3 -93 7 0 8 -9 131 -20 274 -27 348 -30 313 28 318 l47 3 -52 2
-53 2 0 -35 c0 -27 -4 -35 -19 -35 -14 0 -20 -10 -25 -46 -3 -26 -5 -68 -4
-93 l1 -46 7 55 c5 37 6 16 5 -65 -2 -82 0 -104 5 -70 5 34 6 10 5 -70 -2 -84
-1 -104 4 -65 10 73 13 17 5 -83 l-7 -77 -48 0 c-47 0 -48 1 -53 33 -7 43 -38
568 -34 572 2 1 24 5 50 7 l47 5 4 -53 4 -54 -1 57 c-1 62 0 61 -68 56z m119
-590 c-3 -10 -5 -2 -5 17 0 19 2 27 5 18 2 -10 2 -26 0 -35z"/>
<path d="M2123 3965 c0 -33 2 -45 4 -27 2 18 2 45 0 60 -2 15 -4 0 -4 -33z"/>
<path d="M527 3993 c-4 -3 -7 -16 -6 -27 0 -21 1 -21 8 -1 7 17 20 21 82 26
l74 5 -76 2 c-42 1 -79 -1 -82 -5z"/>
<path d="M1905 3983 c-7 -5 -9 -32 -4 -73 3 -36 7 -50 7 -32 2 29 5 32 32 32
22 0 30 -5 30 -17 0 -10 7 -81 15 -158 8 -77 15 -143 15 -147 0 -3 -8 -9 -17
-11 -10 -3 1 -5 25 -6 l42 -1 -1 38 c0 20 -8 114 -17 207 l-17 170 -50 3 c-27
1 -55 -1 -60 -5z"/>
<path d="M412 3973 l77 -4 5 -42 c11 -92 15 -207 7 -207 -5 0 -5 -19 0 -42 4
-24 13 -115 19 -203 6 -88 15 -164 20 -168 4 -5 28 -5 54 -2 44 7 46 9 46 41
0 31 -3 34 -29 34 -35 0 -33 -10 -57 316 -17 223 -19 241 -36 236 -14 -3 -18
2 -18 22 l0 26 -82 -2 -83 -2 77 -3z"/>
<path d="M174 3956 c-3 -8 -4 -23 -1 -33 3 -12 5 -9 6 9 1 27 2 27 79 31 l77
3 -78 2 c-60 2 -79 -1 -83 -12z"/>
<path d="M1563 3905 c0 -38 2 -53 4 -32 2 20 2 52 0 70 -2 17 -4 1 -4 -38z"/>
<path d="M137 3893 c-2 -5 4 -125 14 -268 10 -143 18 -275 18 -292 l1 -33 65
0 65 0 0 35 c0 28 4 35 20 35 14 0 20 6 19 23 -1 15 -3 17 -6 5 -3 -12 -18
-17 -58 -20 -66 -4 -59 -28 -76 290 -12 231 -12 232 -35 232 -13 0 -25 -3 -27
-7z"/>
<path d="M630 3875 c0 -24 3 -25 53 -25 71 0 97 9 97 31 0 17 -8 19 -75 19
-73 0 -75 -1 -75 -25z"/>
<path d="M2132 3855 c0 -27 5 -111 12 -185 8 -74 14 -112 14 -85 0 28 -5 111
-12 185 -8 74 -14 113 -14 85z"/>
<path d="M290 3840 c0 -30 1 -30 54 -30 58 0 71 8 61 40 -5 17 -15 20 -61 20
-53 0 -54 0 -54 -30z"/>
<path d="M1913 3785 c0 -33 2 -45 4 -27 2 18 2 45 0 60 -2 15 -4 0 -4 -33z"/>
<path d="M1573 3775 c0 -33 3 -94 7 -135 l7 -75 0 60 c0 33 -3 94 -7 135 l-7
75 0 -60z"/>
<path d="M1923 3665 c0 -33 2 -45 4 -27 2 18 2 45 0 60 -2 15 -4 0 -4 -33z"/>
<path d="M323 3703 c-9 -3 -13 -25 -12 -66 1 -34 4 -50 6 -36 4 25 8 27 84 33
l79 7 0 35 0 34 -72 -1 c-40 0 -79 -3 -85 -6z"/>
<path d="M1930 3580 c0 -11 4 -20 9 -20 5 0 7 9 4 20 -3 11 -7 20 -9 20 -2 0
-4 -9 -4 -20z"/>
<path d="M323 3495 c0 -44 2 -61 4 -37 2 23 2 59 0 80 -2 20 -4 1 -4 -43z"/>
<path d="M663 3515 c0 -33 2 -45 4 -27 2 18 2 45 0 60 -2 15 -4 0 -4 -33z"/>
<path d="M4520 3490 l-65 -7 84 1 84 1 130 -492 c72 -271 129 -495 126 -497
-2 -2 -28 -6 -58 -7 l-54 -3 -27 90 -28 89 -108 -4 c-60 -2 -110 -4 -111 -5
-2 -2 -5 -29 -7 -62 -2 -32 -2 -49 1 -38 3 18 14 22 65 28 120 12 111 18 142
-84 l27 -91 67 3 67 3 -3 33 c-3 27 0 32 17 32 14 0 21 6 21 20 0 15 -227 886
-256 983 -6 18 -6 18 -114 7z"/>
<path d="M4068 3483 l-68 -4 0 -34 c0 -24 -5 -35 -14 -35 -8 0 -17 -3 -19 -7
-7 -11 58 -1021 65 -1029 4 -3 47 -2 98 2 l91 7 -3 31 c-2 25 1 32 18 34 18 3
20 8 16 65 -5 86 -12 97 -9 15 l2 -66 -35 -6 c-19 -3 -59 -6 -87 -6 -48 0 -53
2 -53 23 0 12 -14 240 -31 505 -17 266 -29 485 -27 487 2 1 38 5 80 8 l77 5 4
-36 c4 -37 4 -37 5 6 2 38 0 42 -20 40 -13 -1 -53 -3 -90 -5z"/>
<path d="M4420 3451 c0 -19 -6 -30 -18 -33 -15 -4 -22 -56 -60 -484 -24 -263
-46 -494 -49 -512 l-5 -33 73 3 c73 3 73 3 83 36 5 17 15 32 22 32 9 0 13 11
13 33 -2 28 -2 29 -6 5 -4 -25 -8 -27 -66 -30 -34 -2 -63 -3 -65 -2 -5 3 88
995 94 1005 3 5 0 9 -5 9 -6 0 -11 -13 -11 -29z"/>
<path d="M3802 3463 c64 -4 67 -5 71 -31 4 -25 4 -24 6 6 l1 32 -72 -2 -73 -2
67 -3z"/>
<path d="M3623 3453 c20 -2 54 -2 75 0 20 2 3 4 -38 4 -41 0 -58 -2 -37 -4z"/>
<path d="M670 3421 c0 -16 -6 -32 -12 -34 -8 -3 -6 -6 5 -6 13 -1 17 7 17 34
0 19 -2 35 -5 35 -3 0 -5 -13 -5 -29z"/>
<path d="M3463 3443 c20 -2 54 -2 75 0 20 2 3 4 -38 4 -41 0 -58 -2 -37 -4z"/>
<path d="M3350 3405 c0 -29 -4 -35 -21 -35 -19 0 -20 -4 -14 -62 12 -124 65
-862 65 -910 0 -48 0 -48 33 -48 17 0 56 3 85 6 51 7 52 7 52 40 l0 34 -60 0
c-56 0 -60 2 -60 23 0 12 -16 229 -35 482 -19 253 -35 468 -35 477 0 11 10 18
28 21 25 4 25 4 -5 6 -31 1 -33 -1 -33 -34z"/>
<path d="M3237 3403 l52 -4 4 -67 3 -67 2 73 2 72 -57 -2 -58 -2 52 -3z"/>
<path d="M3043 3393 c26 -2 67 -2 90 0 23 2 2 3 -48 3 -49 0 -68 -1 -42 -3z"/>
<path d="M3883 3350 c0 -30 2 -43 4 -27 2 15 2 39 0 55 -2 15 -4 2 -4 -28z"/>
<path d="M4183 3335 c0 -38 2 -53 4 -32 2 20 2 52 0 70 -2 17 -4 1 -4 -38z"/>
<path d="M2686 3383 l61 -4 7 -81 c4 -44 4 -83 1 -87 -3 -3 -78 -10 -166 -15
l-159 -9 0 -51 c0 -31 4 -46 9 -38 7 11 168 30 274 32 13 0 17 8 17 35 0 24 5
35 15 35 8 0 15 -1 16 -2 0 -2 15 -202 34 -446 18 -244 36 -446 39 -449 6 -6
393 13 459 23 33 5 37 9 37 34 0 20 6 31 20 35 15 5 20 15 19 38 l-1 32 -7
-30 -6 -30 -235 -16 c-129 -9 -238 -13 -241 -10 -4 3 -21 216 -40 474 l-34
467 -22 0 c-20 0 -23 5 -23 35 l0 35 -67 -2 -68 -2 61 -3z"/>
<path d="M2797 3383 c-4 -3 -7 -18 -6 -32 l1 -26 7 25 c6 24 11 25 96 31 l90
5 -91 2 c-50 1 -94 -1 -97 -5z"/>
<path d="M2508 3373 c23 -2 59 -2 80 0 20 2 1 4 -43 4 -44 0 -61 -2 -37 -4z"/>
<path d="M2348 3363 c23 -2 59 -2 80 0 20 2 1 4 -43 4 -44 0 -61 -2 -37 -4z"/>
<path d="M2113 3353 c15 -2 37 -2 50 0 12 2 0 4 -28 4 -27 0 -38 -2 -22 -4z"/>
<path d="M2278 3353 c7 -3 16 -2 19 1 4 3 -2 6 -13 5 -11 0 -14 -3 -6 -6z"/>
<path d="M1855 3340 c19 -7 22 -24 37 -196 9 -104 15 -190 13 -192 -2 -2 -28
-7 -57 -11 -44 -5 -53 -10 -51 -26 1 -10 34 -145 74 -298 60 -232 70 -280 58
-288 -11 -7 -8 -9 10 -9 16 0 21 4 18 14 -7 18 -137 521 -137 530 0 3 14 6 30
6 28 0 30 3 30 35 0 29 4 35 21 35 20 0 21 4 15 53 -3 28 -11 111 -16 182 -14
171 -16 175 -43 174 -21 0 -21 -1 -2 -9z"/>
<path d="M2007 3343 c-4 -3 -7 -16 -7 -27 0 -12 -9 -29 -20 -39 -11 -9 -20
-25 -20 -36 0 -67 72 -987 78 -991 4 -3 48 -3 97 0 l90 5 -3 33 c-3 27 0 32
17 32 18 0 21 6 19 38 -1 34 -1 35 -5 6 l-4 -31 -81 -6 c-45 -4 -84 -5 -86 -2
-6 5 -71 881 -72 957 0 57 0 57 33 61 l32 4 -31 1 c-17 1 -34 -1 -37 -5z"/>
<path d="M1718 3333 c23 -2 59 -2 80 0 20 2 1 4 -43 4 -44 0 -61 -2 -37 -4z"/>
<path d="M2183 3275 c0 -38 2 -53 4 -32 2 20 2 52 0 70 -2 17 -4 1 -4 -38z"/>
<path d="M1558 3323 c23 -2 59 -2 80 0 20 2 1 4 -43 4 -44 0 -61 -2 -37 -4z"/>
<path d="M2272 3319 c-1 -9 -11 -19 -22 -22 -25 -6 -25 26 5 -507 14 -239 25
-447 25 -462 0 -27 2 -28 49 -28 27 0 63 3 80 6 26 6 31 11 31 36 0 21 6 31
20 35 11 3 20 12 20 20 0 12 -2 12 -16 -1 -10 -11 -34 -16 -74 -16 l-58 0 -6
63 c-3 34 -15 235 -26 447 -20 384 -25 460 -28 429z"/>
<path d="M1360 3303 c0 -12 3 -14 8 -6 4 7 38 14 77 16 l70 3 -77 2 c-68 2
-78 0 -78 -15z"/>
<path d="M1212 3283 c75 -4 77 -4 81 -31 4 -25 4 -24 3 3 l-1 30 -80 1 -80 0
77 -3z"/>
<path d="M3574 3283 l-60 -4 4 -29 c4 -30 5 -30 67 -30 34 0 83 3 109 6 43 6
46 9 46 35 0 32 5 31 -166 22z"/>
<path d="M3893 3240 c0 -30 2 -43 4 -27 2 15 2 39 0 55 -2 15 -4 2 -4 -28z"/>
<path d="M1008 3273 c23 -2 59 -2 80 0 20 2 1 4 -43 4 -44 0 -61 -2 -37 -4z"/>
<path d="M848 3263 c23 -2 59 -2 80 0 20 2 1 4 -43 4 -44 0 -61 -2 -37 -4z"/>
<path d="M1361 3263 c0 -7 -10 -13 -21 -13 -26 0 -26 8 5 -424 17 -233 23
-382 18 -447 l-6 -97 -56 -6 c-114 -12 -412 -28 -417 -24 -3 3 -22 230 -42
503 -31 412 -40 499 -52 503 -12 4 -13 2 -2 -9 19 -20 15 -49 -7 -49 -13 0
-21 8 -23 23 -3 19 -9 22 -46 23 -41 1 -41 1 -4 -3 l39 -4 11 -187 c7 -103 12
-199 12 -213 l0 -27 -107 -6 c-60 -4 -134 -9 -165 -12 l-58 -6 1 -56 c0 -42 3
-51 9 -36 7 18 19 22 101 27 50 4 114 7 141 7 l48 0 0 35 c0 31 3 35 25 35 17
0 25 -5 25 -17 0 -29 43 -608 45 -611 4 -4 488 29 496 33 3 2 4 18 1 35 -4 25
-1 30 17 30 19 0 21 6 23 68 l1 67 6 -87 c4 -48 9 -89 11 -91 3 -2 40 -2 83 1
l77 4 0 34 c0 27 4 34 20 34 18 0 20 6 18 53 l-2 52 -3 -46 -4 -46 -66 -7
c-36 -4 -70 -3 -74 1 -4 4 -23 224 -42 488 -19 264 -35 474 -36 468z"/>
<path d="M3205 3249 c-49 -4 -125 -7 -167 -8 l-78 -1 2 -77 c1 -43 3 -61 5
-40 3 26 9 37 21 38 9 1 76 4 147 8 l130 6 0 33 c0 24 4 32 17 32 10 0 18 5
18 10 0 6 -1 9 -2 8 -2 0 -43 -4 -93 -9z"/>
<path d="M4193 3200 c0 -36 2 -50 4 -32 2 17 2 47 0 65 -2 17 -4 3 -4 -33z"/>
<path d="M548 3233 c23 -2 59 -2 80 0 20 2 1 4 -43 4 -44 0 -61 -2 -37 -4z"/>
<path d="M388 3223 c23 -2 59 -2 80 0 20 2 1 4 -43 4 -44 0 -61 -2 -37 -4z"/>
<path d="M4541 3103 c-26 -295 -26 -283 -5 -283 15 0 16 2 5 9 -11 7 -12 27
-4 102 l9 94 23 -75 c12 -41 24 -83 27 -92 3 -11 -2 -18 -18 -21 -13 -2 3 -5
35 -6 51 -1 58 1 53 17 -3 9 -28 98 -56 197 -29 99 -53 181 -54 183 -2 1 -8
-55 -15 -125z"/>
<path d="M220 3185 c0 -28 -4 -35 -20 -35 -25 0 -26 41 13 -525 24 -346 35
-460 45 -459 6 1 50 2 97 3 l85 1 0 35 c0 28 4 35 20 35 18 0 20 6 18 58 l-2
57 -3 -51 -4 -52 -87 -4 c-48 -2 -88 -4 -89 -4 -3 1 -63 888 -63 928 l0 37 58
4 57 3 -62 2 -63 2 0 -35z"/>
<path d="M1298 3165 c-2 -25 0 -45 4 -45 5 0 8 20 8 45 0 25 -2 45 -4 45 -2 0
-6 -20 -8 -45z"/>
<path d="M2193 3140 c0 -36 2 -50 4 -32 2 17 2 47 0 65 -2 17 -4 3 -4 -33z"/>
<path d="M3900 3126 l0 -53 -51 -6 c-29 -4 -54 -9 -57 -12 -3 -3 28 -132 68
-288 40 -155 75 -290 78 -299 4 -16 -4 -18 -61 -18 l-66 0 -26 88 c-15 48 -56
181 -90 295 -35 115 -66 211 -69 214 -3 3 -26 2 -52 -2 -41 -6 -45 -9 -40 -28
3 -12 7 -51 8 -87 2 -64 2 -64 5 -12 3 41 8 52 21 52 14 0 35 -61 107 -300
l90 -300 74 0 74 0 -6 35 c-5 32 -4 35 19 35 13 0 24 6 24 13 0 6 -31 129 -68
272 l-68 260 34 9 c30 7 32 11 27 36 -5 22 -2 28 14 33 18 4 21 13 21 61 0 31
-2 56 -5 56 -3 0 -5 -24 -5 -54z"/>
<path d="M1675 3163 c-27 -1 -74 -5 -102 -9 -51 -5 -53 -7 -53 -36 l0 -31 46
7 c26 3 78 6 115 6 61 0 69 2 69 19 0 25 -10 52 -19 49 -3 -1 -28 -3 -56 -5z"/>
<path d="M4203 3065 c0 -38 2 -53 4 -32 2 20 2 52 0 70 -2 17 -4 1 -4 -38z"/>
<path d="M1052 3110 c-50 -4 -93 -9 -95 -11 -1 -2 1 -31 4 -64 3 -33 6 -48 7
-34 2 26 3 27 95 33 50 4 118 9 150 12 l57 6 0 34 0 34 -62 -2 c-35 0 -105 -4
-156 -8z"/>
<path d="M438 3063 c-26 -4 -28 -8 -28 -54 l0 -49 94 0 c106 0 110 3 100 71
l-7 39 -66 -1 c-36 -1 -78 -4 -93 -6z m122 -84 c0 -5 -31 -9 -70 -9 -87 0 -93
18 -7 22 67 3 77 2 77 -13z"/>
<path d="M2203 3005 c0 -38 2 -53 4 -32 2 20 2 52 0 70 -2 17 -4 1 -4 -38z"/>
<path d="M2442 3018 l-2 -58 113 2 112 2 -107 3 -107 4 -4 52 -3 52 -2 -57z"/>
<path d="M2972 3033 c-2 -39 0 -43 21 -42 16 1 17 3 5 6 -11 3 -18 17 -21 41
l-4 37 -1 -42z"/>
<path d="M3192 3008 c10 -8 19 -31 21 -58 3 -38 4 -36 3 10 -1 47 -4 55 -21
58 -18 4 -19 3 -3 -10z"/>
<path d="M3058 3003 c23 -2 59 -2 80 0 20 2 1 4 -43 4 -44 0 -61 -2 -37 -4z"/>
<path d="M4213 2930 c0 -36 2 -50 4 -32 2 17 2 47 0 65 -2 17 -4 3 -4 -33z"/>
<path d="M972 2923 l-2 -53 73 2 72 2 -67 3 -67 4 -4 47 -3 47 -2 -52z"/>
<path d="M2673 2935 c0 -22 2 -30 4 -17 2 12 2 30 0 40 -3 9 -5 -1 -4 -23z"/>
<path d="M1583 2922 l-43 -3 1 -57 c1 -31 3 -50 6 -40 4 14 32 33 38 26 2 -2
44 -138 94 -302 50 -165 93 -301 95 -303 2 -3 36 -1 76 3 67 6 71 8 66 28 -3
11 -6 26 -6 33 0 7 -19 13 -47 15 l-47 3 -91 297 c-49 163 -92 298 -95 300 -3
2 -24 2 -47 0z"/>
<path d="M2213 2870 c0 -36 2 -50 4 -32 2 17 2 47 0 65 -2 17 -4 3 -4 -33z"/>
<path d="M3220 2871 l0 -29 -120 -7 -120 -8 0 -43 0 -43 32 10 c18 5 66 9 105
9 l73 0 0 35 c0 28 4 35 20 35 16 0 20 7 20 35 0 19 -2 35 -5 35 -3 0 -5 -13
-5 -29z"/>
<path d="M1162 2883 c39 -3 47 -8 51 -26 4 -18 5 -17 6 6 1 26 0 27 -51 25
l-53 -2 47 -3z"/>
<path d="M2680 2832 l0 -59 -112 -7 c-62 -4 -113 -8 -113 -9 -1 -1 1 -76 5
-167 l7 -165 1 133 2 132 68 0 c96 0 112 6 112 41 0 22 5 29 20 29 18 0 20 7
20 65 0 36 -2 65 -5 65 -3 0 -5 -26 -5 -58z"/>
<path d="M3553 2800 c0 -36 2 -50 4 -32 2 17 2 47 0 65 -2 17 -4 3 -4 -33z"/>
<path d="M4223 2795 c0 -38 2 -53 4 -32 2 20 2 52 0 70 -2 17 -4 1 -4 -38z"/>
<path d="M1218 2770 c-1 -33 0 -60 5 -60 4 0 7 27 7 60 0 77 -7 77 -12 0z"/>
<path d="M1553 2740 c0 -36 2 -50 4 -32 2 17 2 47 0 65 -2 17 -4 3 -4 -33z"/>
<path d="M2223 2735 c0 -38 2 -53 4 -32 2 20 2 52 0 70 -2 17 -4 1 -4 -38z"/>
<path d="M2996 2665 c2 -38 7 -85 10 -102 6 -31 8 -33 48 -31 l41 1 -37 4
c-41 5 -38 -4 -58 133 l-9 65 5 -70z"/>
<path d="M3563 2665 c0 -38 2 -53 4 -32 2 20 2 52 0 70 -2 17 -4 1 -4 -38z"/>
<path d="M4233 2660 c0 -36 2 -50 4 -32 2 17 2 47 0 65 -2 17 -4 3 -4 -33z"/>
<path d="M1018 2703 c-43 -5 -42 2 -23 -128 l14 -90 -5 73 -5 72 48 0 c26 0
72 3 100 6 53 7 53 7 50 40 l-2 34 -70 -2 c-38 -1 -87 -3 -107 -5z"/>
<path d="M453 2595 c0 -44 2 -61 4 -37 2 23 2 59 0 80 -2 20 -4 1 -4 -43z"/>
<path d="M1563 2605 c0 -38 2 -53 4 -32 2 20 2 52 0 70 -2 17 -4 1 -4 -38z"/>
<path d="M2233 2600 c0 -36 2 -50 4 -32 2 17 2 47 0 65 -2 17 -4 3 -4 -33z"/>
<path d="M3573 2530 c0 -36 2 -50 4 -32 2 17 2 47 0 65 -2 17 -4 3 -4 -33z"/>
<path d="M3307 2553 c41 -4 42 -5 46 -46 l4 -42 1 48 2 47 -47 -2 -48 -1 42
-4z"/>
<path d="M3143 2543 c20 -2 54 -2 75 0 20 2 3 4 -38 4 -41 0 -58 -2 -37 -4z"/>
<path d="M1573 2470 c0 -36 2 -50 4 -32 2 17 2 47 0 65 -2 17 -4 3 -4 -33z"/>
<path d="M2243 2465 c0 -38 2 -53 4 -32 2 20 2 52 0 70 -2 17 -4 1 -4 -38z"/>
<path d="M463 2440 c0 -41 2 -58 4 -37 2 20 2 54 0 75 -2 20 -4 3 -4 -38z"/>
<path d="M1010 2447 c0 -20 4 -38 9 -42 6 -3 7 10 4 32 -8 50 -13 55 -13 10z"/>
<path d="M3572 2445 c-11 -12 -10 -15 3 -15 8 0 15 7 15 15 0 18 -2 18 -18 0z"/>
<path d="M1238 2423 c23 -2 61 -2 85 0 23 2 4 4 -43 4 -47 0 -66 -2 -42 -4z"/>
<path d="M1078 2413 c23 -2 59 -2 80 0 20 2 1 4 -43 4 -44 0 -61 -2 -37 -4z"/>
<path d="M4315 2324 c-253 -19 -768 -58 -1145 -87 l-685 -52 -3 -36 c-3 -33
-7 -38 -36 -43 l-33 -6 -6 -151 -6 -151 45 -212 c49 -225 115 -492 133 -540
10 -25 15 -27 44 -22 46 8 474 59 907 107 331 36 411 42 678 46 272 5 556 -5
660 -24 l33 -5 -6 63 c-3 35 -8 74 -11 87 -4 20 -1 22 46 22 47 0 50 1 45 23
-2 12 -12 76 -21 142 -8 66 -27 190 -40 275 -19 117 -27 210 -31 378 l-6 222
-51 -1 c-28 -1 -258 -16 -511 -35z m455 -112 l0 -79 -105 -6 c-58 -4 -130 -10
-160 -13 -54 -7 -55 -8 -55 -38 0 -52 6 -54 115 -46 55 4 112 11 127 15 19 5
31 2 45 -12 10 -10 28 -25 40 -33 19 -13 23 -26 25 -90 2 -41 6 -77 9 -80 4
-3 12 -89 19 -191 l12 -186 -32 -56 c-26 -47 -37 -57 -58 -57 -15 0 -85 -5
-157 -10 l-130 -10 -46 46 c-43 42 -46 50 -57 122 -18 122 -23 206 -15 218 4
6 39 13 76 16 79 5 73 13 80 -125 6 -111 14 -121 88 -114 78 9 92 15 85 41 -4
11 -11 95 -17 186 -7 101 -16 170 -23 178 -10 10 -31 10 -102 2 -49 -5 -116
-10 -150 -10 l-61 0 -21 178 c-26 205 -25 195 -11 186 6 -3 14 -1 18 5 5 8 71
15 186 22 99 5 181 12 184 15 2 2 24 4 48 4 l43 0 0 -78z m-626 7 c41 -35 38
-22 62 -329 9 -118 17 -219 18 -224 0 -5 -28 -31 -64 -58 -88 -65 -160 -128
-160 -139 0 -8 146 -4 211 6 26 4 27 2 34 -53 4 -31 11 -65 16 -74 8 -15 5
-18 -18 -18 -15 -1 -118 -7 -228 -14 -110 -8 -202 -12 -204 -10 -2 1 -5 40 -8
86 l-5 83 76 68 c41 37 103 102 137 143 l62 76 -12 99 c-6 55 -11 124 -11 153
0 72 -12 81 -93 70 l-62 -9 -3 -50 c-2 -27 3 -88 12 -135 8 -47 17 -116 20
-155 l6 -70 -75 -21 -75 -21 -5 21 c-3 12 -15 126 -28 255 l-24 233 26 49 c25
47 28 49 71 50 25 0 68 4 95 9 28 4 82 8 122 9 67 1 75 -1 107 -30z m-543 -52
l46 -52 17 -285 c9 -157 24 -324 33 -373 l16 -87 -37 -55 c-20 -30 -43 -55
-51 -55 -8 0 -81 -5 -163 -11 l-148 -11 -44 44 -44 43 -12 200 c-7 110 -23
284 -35 387 l-23 186 26 34 c13 18 27 40 30 48 4 12 38 17 164 26 87 6 164 12
169 12 6 1 31 -22 56 -51z m-581 -23 l40 -36 0 -89 c0 -58 4 -89 11 -89 6 0 9
-6 6 -14 -6 -14 7 -229 18 -296 5 -34 3 -37 -67 -88 -90 -65 -158 -123 -158
-133 0 -5 55 -7 123 -6 l122 2 5 -55 c3 -30 9 -61 13 -67 5 -8 3 -13 -5 -13
-7 0 -110 -7 -228 -15 -118 -8 -215 -13 -216 -12 -2 1 -6 40 -9 87 l-7 85 76
65 c42 36 105 101 140 145 l64 80 -8 50 c-5 28 -11 96 -15 153 -5 62 -13 106
-20 112 -8 7 -35 8 -76 3 -64 -8 -64 -8 -67 -42 -2 -19 3 -78 12 -130 8 -53
18 -130 22 -171 l6 -75 -73 -22 c-41 -12 -75 -20 -77 -19 -4 5 -29 228 -43
380 -11 125 -10 130 12 178 l22 48 56 1 c31 0 76 4 101 8 25 5 75 9 112 10 65
1 70 -1 108 -35z"/>
<path d="M3385 2064 c-16 -3 -44 -6 -60 -9 l-31 -5 8 -88 c4 -48 14 -182 22
-298 9 -115 19 -225 22 -243 7 -32 9 -33 43 -27 20 3 65 6 101 6 97 0 95 -2
81 131 -7 63 -17 125 -22 139 -5 14 -15 109 -22 210 l-12 185 -50 1 c-27 1
-63 0 -80 -2z"/>
<path d="M1780 2190 c-34 -7 -34 -8 7 -5 23 1 44 -2 47 -7 2 -4 3 -3 2 4 -3
15 -13 17 -56 8z"/>
<path d="M1927 2193 c-4 -3 -7 -19 -7 -35 0 -18 -5 -28 -15 -28 -8 0 -16 -13
-19 -32 -6 -37 -96 -987 -96 -1012 0 -14 12 -16 82 -14 l82 3 7 32 c7 36 -5
43 -78 43 -34 0 -43 4 -43 18 -1 9 21 243 47 520 l47 502 102 0 102 0 7 -27
c3 -16 62 -239 131 -497 68 -258 124 -475 124 -482 0 -10 -17 -14 -64 -14
l-64 0 -30 83 c-34 92 -15 83 -160 79 l-69 -2 -16 -92 c-18 -99 -16 -133 2
-47 7 29 17 57 24 61 7 4 41 8 77 8 l66 0 30 -82 29 -83 75 0 75 0 -3 32 c-3
26 1 32 20 35 13 2 23 8 22 13 -1 6 -61 238 -135 518 l-134 507 -106 0 c-58 0
-109 -3 -112 -7z"/>
<path d="M1670 2172 c0 -5 14 -7 30 -4 17 2 30 6 30 8 0 2 -13 4 -30 4 -16 0
-30 -4 -30 -8z"/>
<path d="M1023 2153 c-53 -4 -53 -4 -53 -37 0 -25 -5 -35 -19 -39 -17 -4 -19
-12 -15 -58 4 -49 64 -992 64 -1011 0 -10 89 -11 155 -2 45 7 47 8 43 35 -3
16 0 31 6 33 6 3 -26 4 -72 3 l-82 -2 -5 30 c-6 41 -66 1027 -63 1030 2 2 40
6 85 10 l82 7 4 -54 3 -53 2 58 2 57 -42 -2 c-24 -1 -67 -3 -95 -5z"/>
<path d="M1262 2151 c-8 -5 -11 -17 -7 -34 6 -21 3 -26 -17 -29 -16 -2 -22 -9
-21 -23 3 -30 221 -1024 226 -1033 3 -4 56 -4 118 0 118 7 129 12 129 57 l0
24 -100 -6 -100 -5 -7 26 c-30 121 -220 1009 -216 1015 2 4 31 7 63 7 l58 0
10 -42 c5 -24 49 -211 98 -417 69 -291 91 -367 96 -345 12 45 80 771 75 791
-4 14 -5 13 -6 -4 0 -13 -7 -23 -15 -23 -9 0 -16 -16 -20 -47 -8 -62 -56 -557
-56 -580 -1 -44 -21 30 -96 345 l-78 332 -61 0 c-33 0 -66 -4 -73 -9z"/>
<path d="M1805 1985 c-10 -97 -16 -178 -13 -180 2 -3 13 74 23 170 10 97 16
178 13 180 -2 3 -13 -74 -23 -170z"/>
<path d="M793 2128 c-72 -10 -72 -10 -79 -44 -3 -19 -12 -34 -20 -34 -8 0 -14
-3 -14 -7 0 -5 -14 -141 -30 -303 -16 -162 -30 -304 -30 -315 -1 -45 -20 23
-95 343 l-79 332 -60 0 c-74 0 -89 -8 -81 -43 6 -21 3 -26 -17 -29 -18 -2 -22
-8 -20 -26 2 -13 54 -251 117 -529 l112 -506 79 2 c127 4 158 12 162 41 2 14
11 31 19 37 11 9 17 32 19 70 l3 58 -7 -52 c-4 -29 -12 -57 -17 -62 -6 -4 -56
-11 -112 -14 l-102 -5 -7 36 c-4 21 -55 253 -114 517 -59 264 -105 483 -103
488 2 4 30 7 63 7 l58 0 35 -147 c19 -82 63 -269 98 -416 39 -163 66 -261 71
-250 3 10 23 191 43 403 19 212 38 395 40 407 4 18 14 23 63 28 31 4 65 9 76
12 15 4 18 1 13 -18 -3 -13 -8 -62 -11 -109 l-5 -85 13 105 c13 101 13 122 -2
119 -4 -1 -39 -6 -79 -11z"/>
<path d="M1163 1985 c0 -33 3 -94 7 -135 l7 -75 0 60 c0 33 -3 94 -7 135 l-7
75 0 -60z"/>
<path d="M2055 1824 c-5 -69 -4 -113 3 -127 12 -25 46 -176 41 -181 -2 -2 -16
-6 -31 -10 -23 -5 -27 -3 -31 21 -4 26 -4 26 -6 -4 l-1 -32 53 6 c92 11 89 -8
38 226 -25 114 -49 207 -53 207 -3 0 -9 -48 -13 -106z"/>
<path d="M835 1735 c-10 -97 -16 -178 -13 -180 2 -3 13 74 23 170 10 97 16
178 13 180 -2 3 -13 -74 -23 -170z"/>
<path d="M1765 1615 c-10 -97 -16 -178 -13 -180 2 -3 13 74 23 170 10 97 16
178 13 180 -2 3 -13 -74 -23 -170z"/>
<path d="M1183 1705 c0 -38 2 -53 4 -32 2 20 2 52 0 70 -2 17 -4 1 -4 -38z"/>
<path d="M2043 1625 c0 -38 2 -53 4 -32 2 20 2 52 0 70 -2 17 -4 1 -4 -38z"/>
<path d="M1193 1570 c0 -36 2 -50 4 -32 2 17 2 47 0 65 -2 17 -4 3 -4 -33z"/>
<path d="M795 1365 c-10 -97 -16 -178 -13 -180 2 -3 13 74 23 170 10 97 16
178 13 180 -2 3 -13 -74 -23 -170z"/>
<path d="M1203 1435 c0 -38 2 -53 4 -32 2 20 2 52 0 70 -2 17 -4 1 -4 -38z"/>
<path d="M1730 1290 c-7 -74 -16 -145 -21 -157 -5 -13 -5 -23 0 -23 5 0 11 15
14 33 12 67 29 255 25 268 -2 7 -10 -47 -18 -121z"/>
<path d="M1213 1300 c0 -36 2 -50 4 -32 2 17 2 47 0 65 -2 17 -4 3 -4 -33z"/>
<path d="M1222 1158 c1 -43 4 -78 8 -78 3 0 5 28 3 63 -6 94 -11 102 -11 15z"/>
</g>
</svg>
