<?xml version="1.0" standalone="no"?>
<!DOCTYPE svg PUBLIC "-//W3C//DTD SVG 20010904//EN"
 "http://www.w3.org/TR/2001/REC-SVG-20010904/DTD/svg10.dtd">
<svg version="1.0" xmlns="http://www.w3.org/2000/svg"
 width="192.000000pt" height="192.000000pt" viewBox="0 0 192.000000 192.000000"
 preserveAspectRatio="xMidYMid meet">

<g transform="translate(0.000000,192.000000) scale(0.100000,-0.100000)"
fill="#000000" stroke="none">
<path d="M806 1869 c-33 -5 -88 -22 -123 -38 -211 -99 -314 -345 -300 -720 12
-311 105 -626 296 -1001 l43 -84 177 179 c366 371 549 658 631 990 33 131 26
219 -25 322 -88 178 -302 321 -528 352 -87 12 -87 12 -171 0z m273 -238 c86
-27 155 -75 202 -139 55 -78 72 -143 67 -256 -3 -80 -8 -99 -38 -154 -38 -72
-90 -119 -176 -159 -55 -26 -68 -28 -189 -28 -125 0 -132 1 -184 30 -98 54
-168 158 -191 284 -19 107 9 220 76 308 33 43 107 93 169 115 68 24 186 23
264 -1z"/>
</g>
</svg>
