<?xml version="1.0" standalone="no"?>
<!DOCTYPE svg PUBLIC "-//W3C//DTD SVG 20010904//EN"
 "http://www.w3.org/TR/2001/REC-SVG-20010904/DTD/svg10.dtd">
<svg version="1.0" xmlns="http://www.w3.org/2000/svg"
 width="512.000000pt" height="512.000000pt" viewBox="0 0 512.000000 512.000000"
 preserveAspectRatio="xMidYMid meet">

<g transform="translate(0.000000,512.000000) scale(0.100000,-0.100000)"
fill="#000000" stroke="none">
<path d="M0 2560 l0 -2560 2560 0 2560 0 0 2560 0 2560 -2560 0 -2560 0 0
-2560z m1139 1556 c30 -48 27 -56 -23 -56 -36 0 -46 4 -51 20 -9 27 -23 25
-31 -5 -5 -22 -12 -25 -50 -25 -49 0 -48 -1 -34 52 l11 37 72 4 c40 1 75 4 79
5 3 1 16 -13 27 -32z m971 -33 c0 -5 11 -138 25 -298 13 -159 23 -291 21 -292
-4 -5 -308 -25 -312 -21 -5 6 -47 588 -42 593 2 3 60 8 129 13 175 13 179 13
179 5z m-380 -40 c0 -16 9 -143 20 -283 27 -344 30 -310 -30 -310 -59 0 -54
-17 -70 255 -6 105 -13 227 -17 272 l-6 82 44 4 c24 2 47 4 52 5 4 1 7 -10 7
-25z m-180 5 c0 -7 9 -130 20 -273 11 -143 20 -277 20 -297 l0 -38 -44 0 c-52
0 -56 6 -57 98 -1 37 -4 94 -8 127 l-6 60 -13 -62 c-7 -35 -16 -63 -21 -63 -4
0 -20 27 -36 60 -16 33 -30 59 -31 57 -3 -3 12 -172 22 -245 l5 -43 -48 3 -48
3 -28 288 c-16 158 -26 294 -23 302 3 10 19 15 46 15 l41 0 31 -70 c28 -63 48
-88 48 -59 0 6 9 42 21 80 l21 69 44 0 c28 0 44 -4 44 -12z m-350 -37 c0 -10
3 -32 6 -48 l6 -30 -79 -8 c-129 -11 -124 -8 -121 -74 l3 -56 63 -6 c34 -3 64
-8 66 -10 2 -2 6 -21 10 -42 8 -43 8 -43 -76 -52 -57 -6 -58 -7 -58 -38 0 -18
3 -49 6 -70 l7 -37 108 6 109 7 0 -51 c0 -60 7 -57 -177 -67 l-111 -7 -6 54
c-11 95 -46 482 -46 510 0 27 1 27 73 31 200 9 217 8 217 -12z m-341 -73 c6
-35 14 -84 17 -110 l7 -48 -42 0 c-22 0 -41 -3 -41 -7 0 -5 23 -88 51 -186 28
-98 49 -180 46 -183 -2 -3 -21 -7 -41 -11 -25 -4 -37 -2 -40 8 -3 8 -30 94
-61 192 l-56 177 -27 -6 c-15 -4 -28 -8 -30 -9 -1 -1 5 -82 13 -180 18 -196
18 -195 -42 -195 -18 0 -33 1 -33 3 -14 124 -46 594 -42 599 7 7 84 13 228 16
l82 2 11 -62z m-365 -10 c3 -24 7 -80 10 -125 6 -95 8 -93 -97 -93 -40 0 -78
-4 -86 -9 -10 -7 -12 -33 -7 -127 4 -66 9 -135 12 -156 l5 -36 -55 -4 -56 -3
-5 40 c-2 22 -9 128 -15 235 -6 107 -13 221 -16 252 l-6 57 79 4 c43 1 113 4
155 5 l77 2 5 -42z m4259 -935 c72 -271 129 -495 126 -497 -2 -2 -28 -6 -58
-7 l-54 -3 -27 90 -28 89 -36 0 c-20 -1 -69 -2 -110 -3 l-74 -2 -5 -42 c-3
-24 -9 -66 -12 -95 l-7 -51 -61 -4 c-34 -2 -63 -3 -65 -2 -6 4 88 998 96 1006
6 6 117 16 166 14 16 -1 36 -66 149 -493z m-582 470 c0 -10 17 -239 37 -510
l37 -491 -35 -6 c-19 -3 -59 -6 -87 -6 -51 0 -53 1 -53 28 0 15 -14 236 -30
492 -16 256 -30 473 -30 482 0 14 12 18 63 21 34 2 70 4 80 5 10 1 17 -5 18
-15z m-301 -10 c0 -5 7 -73 15 -153 8 -80 15 -163 15 -186 l0 -41 -51 -6 c-29
-4 -54 -9 -57 -12 -3 -3 28 -132 68 -288 40 -155 75 -290 78 -299 4 -16 -4
-18 -61 -18 l-66 0 -26 88 c-15 48 -56 181 -90 295 -35 115 -66 211 -69 214
-3 3 -25 2 -50 -1 l-44 -7 5 -57 c29 -356 39 -538 29 -544 -6 -4 -39 -8 -73
-8 -53 0 -63 3 -63 18 0 9 -16 232 -36 495 -19 264 -33 481 -30 484 6 6 332
29 439 32 37 0 67 -2 67 -6z m-578 -124 c2 -39 1 -72 -2 -74 -3 -2 -79 -7
-169 -11 l-164 -7 7 -121 c4 -66 8 -121 9 -122 1 -1 52 2 112 6 61 4 113 5
116 1 4 -3 10 -40 14 -83 l7 -76 -121 -7 -121 -8 0 -26 c0 -35 28 -263 33
-268 3 -2 77 1 166 8 90 6 164 9 166 7 2 -1 5 -35 7 -73 l3 -70 -235 -16
c-129 -9 -238 -13 -241 -10 -5 5 -68 826 -72 951 l-2 45 185 11 c102 6 211 12
242 12 l56 2 4 -71z m-538 -30 c4 -45 4 -84 1 -88 -3 -3 -78 -10 -167 -15
l-161 -9 7 -75 c3 -41 6 -93 6 -114 l0 -39 114 3 114 3 6 -50 c3 -27 6 -71 6
-96 l0 -46 -112 -7 c-62 -4 -113 -8 -114 -9 -1 -1 2 -83 5 -182 5 -124 4 -182
-3 -187 -14 -10 -126 -10 -127 0 -8 101 -54 958 -52 962 4 5 307 26 409 29
l61 1 7 -81z m-546 -406 c19 -252 36 -481 39 -509 l5 -51 -83 -6 c-45 -4 -85
-5 -87 -2 -6 5 -71 881 -72 957 0 57 0 57 33 61 17 2 55 5 82 5 l50 2 33 -457z
m-316 252 c9 -104 15 -191 13 -193 -2 -2 -28 -7 -57 -11 -44 -5 -53 -10 -51
-26 1 -10 34 -145 74 -298 81 -312 81 -299 -6 -295 l-49 3 -91 300 -91 300
-45 -4 c-24 -1 -46 -4 -48 -7 -2 -2 6 -136 19 -299 12 -163 20 -298 18 -299
-1 -2 -33 -7 -71 -11 -52 -5 -68 -4 -72 7 -2 7 -18 216 -35 463 -16 248 -32
464 -34 481 -2 17 -1 35 2 41 6 9 428 43 487 39 19 -1 21 -14 37 -191z m-597
70 c4 -35 5 -71 2 -78 -4 -11 -40 -16 -144 -21 -76 -4 -151 -9 -168 -12 l-30
-5 9 -116 9 -116 118 7 118 7 6 -43 c4 -24 5 -61 3 -83 l-3 -40 -114 -7 c-62
-4 -115 -9 -118 -11 -8 -8 34 -292 43 -290 5 0 82 4 172 8 l162 8 0 -71 0 -70
-57 -6 c-114 -12 -414 -29 -419 -24 -2 3 -21 230 -42 505 l-37 501 160 9 c88
5 197 10 242 11 l81 2 7 -65z m-535 -185 c7 -116 11 -212 9 -214 -2 -2 -75 -9
-163 -14 -87 -6 -161 -13 -163 -16 -3 -2 3 -122 12 -266 10 -143 16 -263 14
-264 -2 -2 -43 -6 -90 -8 l-86 -4 -6 70 c-18 216 -60 886 -56 890 4 4 380 31
475 35 l41 1 13 -210z m4010 -818 l0 -79 -105 -6 c-58 -4 -130 -10 -160 -13
-54 -7 -55 -8 -55 -38 0 -52 6 -54 115 -46 55 4 112 11 127 15 19 5 31 2 45
-12 10 -10 28 -25 40 -33 19 -13 23 -26 25 -90 2 -41 6 -77 9 -80 4 -3 12 -89
19 -191 l12 -186 -32 -56 c-26 -47 -37 -57 -58 -57 -15 0 -85 -5 -157 -10
l-130 -10 -46 46 c-43 42 -46 50 -57 122 -18 122 -23 206 -15 218 4 6 39 13
76 16 79 5 73 13 80 -125 6 -111 14 -121 88 -114 78 9 92 15 85 41 -4 11 -11
95 -17 186 -7 101 -16 170 -23 178 -10 10 -31 10 -102 2 -49 -5 -116 -10 -150
-10 l-61 0 -21 178 c-26 205 -25 195 -11 186 6 -3 14 -1 18 5 5 8 71 15 186
22 99 5 181 12 184 15 2 2 24 4 48 4 l43 0 0 -78z m-626 7 c41 -35 38 -22 62
-329 9 -118 17 -219 18 -224 0 -5 -28 -31 -64 -58 -88 -65 -160 -128 -160
-139 0 -8 146 -4 211 6 26 4 27 2 34 -53 4 -31 11 -65 16 -74 8 -15 5 -18 -18
-18 -15 -1 -118 -7 -228 -14 -110 -8 -202 -12 -204 -10 -2 1 -5 40 -8 86 l-5
83 76 68 c41 37 103 102 137 143 l62 76 -12 99 c-6 55 -11 124 -11 153 0 72
-12 81 -93 70 l-62 -9 -3 -50 c-2 -27 3 -88 12 -135 8 -47 17 -116 20 -155 l6
-70 -75 -21 -75 -21 -5 21 c-3 12 -15 126 -28 255 l-24 233 26 49 c25 47 28
49 71 50 25 0 68 4 95 9 28 4 82 8 122 9 67 1 75 -1 107 -30z m-543 -52 l46
-52 17 -285 c9 -157 24 -324 33 -373 l16 -87 -37 -55 c-20 -30 -43 -55 -51
-55 -8 0 -81 -5 -163 -11 l-148 -11 -44 44 -44 43 -12 200 c-7 110 -23 284
-35 387 l-23 186 26 34 c13 18 27 40 30 48 4 12 38 17 164 26 87 6 164 12 169
12 6 1 31 -22 56 -51z m-1777 -19 c-3 -24 -29 -263 -58 -531 -29 -268 -57
-492 -62 -496 -5 -5 -55 -11 -112 -14 l-102 -5 -7 26 c-30 121 -220 1009 -216
1015 2 4 31 7 63 7 l58 0 10 -42 c5 -24 49 -211 98 -416 61 -259 91 -366 95
-350 4 13 24 201 45 418 20 217 40 398 43 402 3 4 35 11 71 16 36 5 68 10 72
11 4 0 5 -18 2 -41z m321 15 c3 -16 62 -239 131 -497 68 -258 124 -475 124
-482 0 -10 -17 -14 -64 -14 l-64 0 -30 83 c-34 92 -15 83 -160 79 l-69 -2 -16
-91 c-9 -51 -18 -93 -19 -95 -2 -1 -33 0 -70 3 -53 5 -68 9 -68 22 -1 9 21
242 47 519 l47 502 102 0 102 0 7 -27z m875 -19 l40 -36 0 -89 c0 -58 4 -89
11 -89 6 0 9 -6 6 -14 -6 -14 7 -229 18 -296 5 -34 3 -37 -67 -88 -90 -65
-158 -123 -158 -133 0 -5 55 -7 123 -6 l122 2 5 -55 c3 -30 9 -61 13 -67 5 -8
3 -13 -5 -13 -7 0 -110 -7 -228 -15 -118 -8 -215 -13 -216 -12 -2 1 -6 40 -9
87 l-7 85 76 65 c42 36 105 101 140 145 l64 80 -8 50 c-5 28 -11 96 -15 153
-5 62 -13 106 -20 112 -8 7 -35 8 -76 3 -64 -8 -64 -8 -67 -42 -2 -19 3 -78
12 -130 8 -53 18 -130 22 -171 l6 -75 -73 -22 c-41 -12 -75 -20 -77 -19 -4 5
-29 228 -43 380 -11 125 -10 130 12 178 l22 48 56 1 c31 0 76 4 101 8 25 5 75
9 112 10 65 1 70 -1 108 -35z m-1870 -14 c0 -10 16 -230 35 -487 19 -257 35
-488 37 -513 l3 -45 -88 -5 -87 -5 -5 30 c-2 17 -16 224 -30 460 -14 237 -28
462 -32 502 l-6 72 49 4 c118 9 124 8 124 -13z m-276 -42 c-3 -24 -29 -262
-58 -531 -29 -268 -56 -491 -62 -496 -5 -5 -55 -11 -111 -14 l-102 -5 -7 36
c-4 21 -55 253 -114 517 -59 264 -105 483 -103 488 2 4 30 7 63 7 l58 0 35
-147 c19 -82 63 -269 98 -416 39 -164 66 -261 71 -250 3 10 24 197 44 416 21
219 41 402 44 407 3 5 35 13 70 18 36 5 68 10 72 11 4 0 5 -18 2 -41z"/>
<path d="M1904 3983 c-7 -6 -5 -68 7 -212 10 -112 19 -204 21 -205 2 -1 29 0
61 2 l57 4 -1 36 c0 21 -8 114 -17 207 l-17 170 -50 3 c-27 1 -55 -1 -61 -5z"/>
<path d="M630 3875 c0 -24 3 -25 53 -25 71 0 97 9 97 31 0 17 -8 19 -75 19
-73 0 -75 -1 -75 -25z"/>
<path d="M290 3840 c0 -30 1 -30 54 -30 58 0 71 8 61 40 -5 17 -15 20 -61 20
-53 0 -54 0 -54 -30z"/>
<path d="M4541 3103 c-6 -71 -14 -162 -17 -204 l-7 -77 74 6 c41 2 75 5 76 6
3 3 -107 389 -111 394 -2 1 -8 -55 -15 -125z"/>
<path d="M3574 3283 l-60 -4 4 -29 c4 -30 5 -30 67 -30 34 0 83 3 109 6 43 6
46 9 46 35 0 32 5 31 -166 22z"/>
<path d="M1675 3163 c-27 -1 -74 -5 -102 -9 -51 -5 -53 -7 -53 -36 l0 -31 46
7 c26 3 78 6 115 6 61 0 69 2 69 19 0 25 -10 52 -19 49 -3 -1 -28 -3 -56 -5z"/>
<path d="M438 3063 c-26 -4 -28 -8 -28 -54 l0 -49 94 0 c106 0 110 3 100 71
l-7 39 -66 -1 c-36 -1 -78 -4 -93 -6z"/>
<path d="M3385 2064 c-16 -3 -44 -6 -60 -9 l-31 -5 8 -88 c4 -48 14 -182 22
-298 9 -115 19 -225 22 -243 7 -32 9 -33 43 -27 20 3 65 6 101 6 97 0 95 -2
81 131 -7 63 -17 125 -22 139 -5 14 -15 109 -22 210 l-12 185 -50 1 c-27 1
-63 0 -80 -2z"/>
<path d="M2060 1908 c0 -13 -7 -110 -15 -217 -8 -107 -13 -196 -12 -197 3 -4
128 14 132 18 5 7 -91 418 -97 418 -5 0 -8 -10 -8 -22z"/>
</g>
</svg>
